<?xml version="1.0" encoding="UTF-8" standalone="no"?>
<!-- Created with Inkscape (http://www.inkscape.org/) -->

<svg
   xmlns:dc="http://purl.org/dc/elements/1.1/"
   xmlns:cc="http://creativecommons.org/ns#"
   xmlns:rdf="http://www.w3.org/1999/02/22-rdf-syntax-ns#"
   xmlns:svg="http://www.w3.org/2000/svg"
   xmlns="http://www.w3.org/2000/svg"
   version="1.1"
   width="354.32501"
   height="84.8125"
   id="svg5062"
   xml:space="preserve"><metadata
     id="metadata5068"><rdf:RDF><cc:Work
         rdf:about=""><dc:format>image/svg+xml</dc:format><dc:type
           rdf:resource="http://purl.org/dc/dcmitype/StillImage" /><dc:title></dc:title></cc:Work></rdf:RDF></metadata><defs
     id="defs5066" /><g
     transform="matrix(1.25,0,0,-1.25,0,84.8125)"
     id="g5070"><path
       d="m 122.389,35.434 -0.6,0.0148 -0.59,0.045 -0.58,0.0742 -0.57,0.1019 -0.56,0.1297 -0.56,0.157 -0.54,0.1821 -0.52,0.209 -0.52,0.2332 -0.5,0.2558 -0.49,0.2813 -0.47,0.3019 -0.45,0.325 -0.44,0.3449 -0.43,0.3661 -0.4,0.3847 -0.39,0.4039 -0.36,0.4223 -0.35,0.4398 -0.32,0.4563 -0.3,0.4719 -0.28,0.4871 -0.26,0.5019 -0.23,0.516 -0.21,0.5278 -0.18,0.541 -0.16,0.5519 -0.13,0.5633 -0.1,0.5731 -0.08,0.5828 -0.04,0.591 -0.02,0.5988 c 0,6.418 5.21,11.625 11.63,11.625 6.43,0 11.63,-5.207 11.63,-11.625 0,-6.4289 -5.2,-11.6355 -11.63,-11.6355 z"
       id="path5076"
       style="fill:none;stroke:none" /><path
       d="m 165.74805,-0.00195313 c -42.0095,0 -76.06055,18.98484413 -76.06055,42.40234413 0,13.267125 10.92186,25.101137 28.02148,32.875 -8.08112,-5.487363 -13.40286,-12.973125 -14.58398,-21.859375 -2.685,-20.186 16.83031,-40.82036 45.14844,-49.6152348 -14.6875,6.6649998 -24.92383,21.4272348 -24.92383,38.5996098 0,23.21725 18.64844,42.045898 41.77344,42.382812 -0.0375,0.0049 -0.0867,0.01465 -0.13672,0.01953 0.2625,0 0.51172,0.0098 0.76172,0.0098 42.0125,0 76.07617,-18.984859 76.07617,-42.412109 0,-13.26125 -10.93711,-25.097594 -28.03711,-32.8710941 l 0.75,0.5214841 0.73633,0.53125 0.71289,0.542969 0.69922,0.554688 0.6875,0.566406 0.66406,0.578125 0.64844,0.58789 0.625,0.59961 0.61328,0.609375 0.58789,0.621094 0.57422,0.630859 0.5625,0.642578 0.53711,0.652344 0.51367,0.662109 0.5,0.671875 0.47461,0.683594 0.44922,0.693359 0.4375,0.703125 0.42578,0.712891 0.38672,0.722656 0.375,0.730469 0.35156,0.740234 0.33594,0.75 0.30078,0.759766 0.28711,0.769531 0.26367,0.777344 0.25,0.787109 0.21094,0.794922 0.1875,0.804688 0.17578,0.8125 0.15039,0.820312 0.125,0.830078 c 2.675,20.19 -16.83789,40.825716 -45.15039,49.619141 14.6875,-6.665038 24.92578,-21.425781 24.92578,-38.613281 0,-23.202625 -18.65039,-42.02593787 -41.77539,-42.36718788 0.05,-0.005375 0.10039,-0.01501562 0.15039,-0.02539062 -0.2625,0 -0.52656,-0.00976563 -0.78906,-0.00976563 z M 152.5,11.3125 a 14.25,14.249999 0 0 1 14.25,14.25 14.25,14.249999 0 0 1 -14.25,14.25 14.25,14.249999 0 0 1 -14.25,-14.25 14.25,14.249999 0 0 1 14.25,-14.25 z"
       transform="matrix(0.8,0,0,-0.8,0,67.85)"
       id="path5078"
       style="fill:#ffffff;fill-opacity:1;fill-rule:nonzero;stroke:none" /><path
       d="m 171.029,60.2266 0.6,-0.4168 0.59,-0.425 0.57,-0.4352 0.56,-0.4441 0.55,-0.4528 0.53,-0.4621 0.52,-0.4699 0.5,-0.4801 0.49,-0.4879 0.47,-0.4961 0.46,-0.505 0.45,-0.5141 0.43,-0.5219 0.41,-0.5301 0.4,-0.5378 0.38,-0.5469 0.36,-0.5539 0.35,-0.5621 0.34,-0.57 0.31,-0.5781 0.3,-0.5851 0.28,-0.593 0.27,-0.6 0.24,-0.6078 0.23,-0.6153 0.21,-0.6218 0.2,-0.6289 0.17,-0.6371 0.15,-0.643 0.14,-0.65 0.12,-0.657 0.1,-0.6641 c 2.14,-16.152 -13.47,-32.6598 -36.12,-39.69454 11.75,5.33203 19.94,17.14064 19.94,30.89064 0,18.5621 -14.92,33.6207 -33.42,33.8937 0.04,0.0043 0.08,0.0121 0.12,0.0204 -0.21,0 -0.42,0.0078 -0.63,0.0078 -33.6076,0 -60.8494,-15.1879 -60.8494,-33.9219 0,-10.6137 8.7379,-20.0817 22.4176,-26.30079 -6.4649,4.38989 -10.7227,10.37889 -11.6676,17.48789 -2.148,16.1488 13.4649,32.6559 36.1194,39.6918 -11.75,-5.332 -19.9397,-17.141 -19.9397,-30.8789 0,-18.5738 14.9197,-33.636731 33.4197,-33.9062625 -0.03,-0.0039063 -0.07,-0.0117187 -0.11,-0.015625 0.21,0 0.41,-0.0078125 0.61,-0.0078125 33.61,0 60.86,15.1879 60.86,33.9297 0,10.609 -8.75,20.0781 -22.43,26.2969 z"
       id="path5080"
       style="fill:none;stroke:none" /><path
       d="m 283.458,1.78125 -33.599,33.60155 30.819,30.8117 -23.93,0 -18.85,-18.8468 -18.85,18.8468 -23.939,0 30.82,-30.8117 -33.6,-33.60155 23.93,0 21.639,21.63675 21.64,-21.63675 23.92,0"
       id="path5082"
       style="fill:#ffffff;fill-opacity:1;fill-rule:nonzero;stroke:none" /><path
       d="m 283.458,1.78125 -33.599,33.60155 30.819,30.8117 -23.93,0 -18.85,-18.8468 -18.85,18.8468 -23.939,0 30.82,-30.8117 -33.6,-33.60155 23.93,0 21.639,21.63675 21.64,-21.63675 23.92,0 z"
       id="path5084"
       style="fill:none;stroke:none" /><path
       d="m 0,66.1945 60.0266,0 0,-13.191 -41.3036,0 0,-11.9449 32.2067,0 0,-13.1957 -32.2067,0 0,-12.8399 42.4997,0 0,-13.19097 -61.2227,0 0,64.36247"
       id="path5086"
       style="fill:#ffffff;fill-opacity:1;fill-rule:nonzero;stroke:none" /><path
       d="m 0,66.1945 60.0266,0 0,-13.191 -41.3036,0 0,-11.9449 32.2067,0 0,-13.1957 -32.2067,0 0,-12.8399 42.4997,0 0,-13.19097 -61.2227,0 0,64.36247 z"
       id="path5088"
       style="fill:none;stroke:none" /></g></svg>