<?xml version="1.0" encoding="UTF-8" standalone="no"?>
<!-- Created with Inkscape (http://www.inkscape.org/) -->

<svg
   xmlns:dc="http://purl.org/dc/elements/1.1/"
   xmlns:cc="http://creativecommons.org/ns#"
   xmlns:rdf="http://www.w3.org/1999/02/22-rdf-syntax-ns#"
   xmlns:svg="http://www.w3.org/2000/svg"
   xmlns="http://www.w3.org/2000/svg"
   xmlns:sodipodi="http://sodipodi.sourceforge.net/DTD/sodipodi-0.dtd"
   xmlns:inkscape="http://www.inkscape.org/namespaces/inkscape"
   id="svg5062"
   version="1.1"
   inkscape:version="0.91 r"
   width="354.325"
   height="84.8125"
   xml:space="preserve"
   sodipodi:docname="EOX_Logo.svg"><metadata
     id="metadata5068"><rdf:RDF><cc:Work
         rdf:about=""><dc:format>image/svg+xml</dc:format><dc:type
           rdf:resource="http://purl.org/dc/dcmitype/StillImage" /><dc:title /></cc:Work></rdf:RDF></metadata><defs
     id="defs5066" /><sodipodi:namedview
     pagecolor="#ffffff"
     bordercolor="#666666"
     borderopacity="1"
     objecttolerance="10"
     gridtolerance="10"
     guidetolerance="10"
     inkscape:pageopacity="0"
     inkscape:pageshadow="2"
     inkscape:window-width="1855"
     inkscape:window-height="1056"
     id="namedview5064"
     showgrid="false"
     inkscape:zoom="2.8284271"
     inkscape:cx="121.0806"
     inkscape:cy="38.20554"
     inkscape:window-x="65"
     inkscape:window-y="24"
     inkscape:window-maximized="1"
     inkscape:current-layer="g5070" /><g
     id="g5070"
     inkscape:groupmode="layer"
     inkscape:label="ink_ext_XXXXXX"
     transform="matrix(1.25,0,0,-1.25,0,84.8125)"><path
       inkscape:connector-curvature="0"
       id="path5076"
       style="fill:none;stroke:none"
       d="m 122.389,35.434 -0.6,0.0148 -0.59,0.045 -0.58,0.0742 -0.57,0.1019 -0.56,0.1297 -0.56,0.157 -0.54,0.1821 -0.52,0.209 -0.52,0.2332 -0.5,0.2558 -0.49,0.2813 -0.47,0.3019 -0.45,0.325 -0.44,0.3449 -0.43,0.3661 -0.4,0.3847 -0.39,0.4039 -0.36,0.4223 -0.35,0.4398 -0.32,0.4563 -0.3,0.4719 -0.28,0.4871 -0.26,0.5019 -0.23,0.516 -0.21,0.5278 -0.18,0.541 -0.16,0.5519 -0.13,0.5633 -0.1,0.5731 -0.08,0.5828 -0.04,0.591 -0.02,0.5988 c 0,6.418 5.21,11.625 11.63,11.625 6.43,0 11.63,-5.207 11.63,-11.625 0,-6.4289 -5.2,-11.6355 -11.63,-11.6355 z" /><path
       style="fill:#004170;fill-opacity:1;fill-rule:nonzero;stroke:none"
       d="M 165.74805 -0.001953125 C 123.73855 -0.001953125 89.6875 18.982891 89.6875 42.400391 C 89.6875 55.667516 100.60936 67.501528 117.70898 75.275391 C 109.62786 69.788028 104.30612 62.302266 103.125 53.416016 C 100.44 33.230016 119.95531 12.595656 148.27344 3.8007812 C 133.58594 10.465781 123.34961 25.228016 123.34961 42.400391 C 123.34961 65.617641 141.99805 84.446289 165.12305 84.783203 C 165.08555 84.788086 165.03633 84.797852 164.98633 84.802734 C 165.24883 84.802734 165.49805 84.8125 165.74805 84.8125 C 207.76055 84.8125 241.82422 65.827641 241.82422 42.400391 C 241.82422 29.139141 230.88711 17.302797 213.78711 9.5292969 L 214.53711 10.050781 L 215.27344 10.582031 L 215.98633 11.125 L 216.68555 11.679688 L 217.37305 12.246094 L 218.03711 12.824219 L 218.68555 13.412109 L 219.31055 14.011719 L 219.92383 14.621094 L 220.51172 15.242188 L 221.08594 15.873047 L 221.64844 16.515625 L 222.18555 17.167969 L 222.69922 17.830078 L 223.19922 18.501953 L 223.67383 19.185547 L 224.12305 19.878906 L 224.56055 20.582031 L 224.98633 21.294922 L 225.37305 22.017578 L 225.74805 22.748047 L 226.09961 23.488281 L 226.43555 24.238281 L 226.73633 24.998047 L 227.02344 25.767578 L 227.28711 26.544922 L 227.53711 27.332031 L 227.74805 28.126953 L 227.93555 28.931641 L 228.11133 29.744141 L 228.26172 30.564453 L 228.38672 31.394531 C 231.06172 51.584531 211.54883 72.220247 183.23633 81.013672 C 197.92383 74.348634 208.16211 59.587891 208.16211 42.400391 C 208.16211 19.197766 189.51172 0.37445313 166.38672 0.033203125 C 166.43672 0.027828125 166.48711 0.0181875 166.53711 0.0078125 C 166.27461 0.0078125 166.01055 -0.001953125 165.74805 -0.001953125 z M 152.5 11.3125 A 14.25 14.249999 0 0 1 166.75 25.5625 A 14.25 14.249999 0 0 1 152.5 39.8125 A 14.25 14.249999 0 0 1 138.25 25.5625 A 14.25 14.249999 0 0 1 152.5 11.3125 z "
       transform="matrix(0.8,0,0,-0.8,0,67.85)"
       id="path5078" /><path
       inkscape:connector-curvature="0"
       id="path5080"
       style="fill:none;stroke:none"
       d="m 171.029,60.2266 0.6,-0.4168 0.59,-0.425 0.57,-0.4352 0.56,-0.4441 0.55,-0.4528 0.53,-0.4621 0.52,-0.4699 0.5,-0.4801 0.49,-0.4879 0.47,-0.4961 0.46,-0.505 0.45,-0.5141 0.43,-0.5219 0.41,-0.5301 0.4,-0.5378 0.38,-0.5469 0.36,-0.5539 0.35,-0.5621 0.34,-0.57 0.31,-0.5781 0.3,-0.5851 0.28,-0.593 0.27,-0.6 0.24,-0.6078 0.23,-0.6153 0.21,-0.6218 0.2,-0.6289 0.17,-0.6371 0.15,-0.643 0.14,-0.65 0.12,-0.657 0.1,-0.6641 c 2.14,-16.152 -13.47,-32.6598 -36.12,-39.69454 11.75,5.33203 19.94,17.14064 19.94,30.89064 0,18.5621 -14.92,33.6207 -33.42,33.8937 0.04,0.0043 0.08,0.0121 0.12,0.0204 -0.21,0 -0.42,0.0078 -0.63,0.0078 -33.6076,0 -60.8494,-15.1879 -60.8494,-33.9219 0,-10.6137 8.7379,-20.0817 22.4176,-26.30079 -6.4649,4.38989 -10.7227,10.37889 -11.6676,17.48789 -2.148,16.1488 13.4649,32.6559 36.1194,39.6918 -11.75,-5.332 -19.9397,-17.141 -19.9397,-30.8789 0,-18.5738 14.9197,-33.636731 33.4197,-33.9062625 -0.03,-0.0039063 -0.07,-0.0117187 -0.11,-0.015625 0.21,0 0.41,-0.0078125 0.61,-0.0078125 33.61,0 60.86,15.1879 60.86,33.9297 0,10.609 -8.75,20.0781 -22.43,26.2969 z" /><path
       inkscape:connector-curvature="0"
       id="path5082"
       style="fill:#004170;fill-opacity:1;fill-rule:nonzero;stroke:none"
       d="m 283.458,1.78125 -33.599,33.60155 30.819,30.8117 -23.93,0 -18.85,-18.8468 -18.85,18.8468 -23.939,0 30.82,-30.8117 -33.6,-33.60155 23.93,0 21.639,21.63675 21.64,-21.63675 23.92,0" /><path
       inkscape:connector-curvature="0"
       id="path5084"
       style="fill:none;stroke:none"
       d="m 283.458,1.78125 -33.599,33.60155 30.819,30.8117 -23.93,0 -18.85,-18.8468 -18.85,18.8468 -23.939,0 30.82,-30.8117 -33.6,-33.60155 23.93,0 21.639,21.63675 21.64,-21.63675 23.92,0 z" /><path
       inkscape:connector-curvature="0"
       id="path5086"
       style="fill:#004170;fill-opacity:1;fill-rule:nonzero;stroke:none"
       d="m 0,66.1945 60.0266,0 0,-13.191 -41.3036,0 0,-11.9449 32.2067,0 0,-13.1957 -32.2067,0 0,-12.8399 42.4997,0 0,-13.19097 -61.2227,0 0,64.36247" /><path
       inkscape:connector-curvature="0"
       id="path5088"
       style="fill:none;stroke:none"
       d="m 0,66.1945 60.0266,0 0,-13.191 -41.3036,0 0,-11.9449 32.2067,0 0,-13.1957 -32.2067,0 0,-12.8399 42.4997,0 0,-13.19097 -61.2227,0 0,64.36247 z" /></g></svg>