<?xml version="1.0" encoding="UTF-8" standalone="no"?><!DOCTYPE svg PUBLIC "-//W3C//DTD SVG 1.1//EN" "http://www.w3.org/Graphics/SVG/1.1/DTD/svg11.dtd"><svg width="100%" height="100%" viewBox="0 0 237 66" version="1.1" xmlns="http://www.w3.org/2000/svg" xmlns:xlink="http://www.w3.org/1999/xlink" xml:space="preserve" xmlns:serif="http://www.serif.com/" style="fill-rule:evenodd;clip-rule:evenodd;stroke-linejoin:round;stroke-miterlimit:1.41421;"><path d="M232.07,60.292l0,-55.527l-55.527,0l0,10.102l-3.4,0l0,-13.502l62.327,0l0,62.327l-62.327,0l0,-11.671l3.4,0l0,8.271l55.527,0Z" style="fill:#fff;"/><path d="M11.353,33.569l-7.978,0l0,5.976l9.325,0l0,2.695l-12.7,0l0,-19.424l12.607,0l0,2.722l-9.232,0l0,5.363l7.978,0l0,2.668Z" style="fill:#fff;fill-rule:nonzero;"/><path d="M29.657,22.816l0,12.981c0,2.063 -0.661,3.697 -1.982,4.902c-1.32,1.206 -3.079,1.808 -5.276,1.808c-2.223,0 -3.989,-0.594 -5.296,-1.781c-1.308,-1.187 -1.961,-2.835 -1.961,-4.943l0,-12.967l3.362,0l0,12.994c0,1.299 0.329,2.29 0.987,2.975c0.658,0.685 1.627,1.027 2.908,1.027c2.597,0 3.896,-1.369 3.896,-4.109l0,-12.887l3.362,0Z" style="fill:#fff;fill-rule:nonzero;"/><path d="M40.396,34.769l-3.762,0l0,7.471l-3.375,0l0,-19.424l6.83,0c2.241,0 3.971,0.503 5.19,1.509c1.218,1.006 1.827,2.461 1.827,4.366c0,1.3 -0.313,2.388 -0.94,3.265c-0.627,0.876 -1.501,1.551 -2.622,2.022l4.363,8.089l0,0.173l-3.616,0l-3.895,-7.471Zm-3.762,-2.721l3.468,0c1.139,0 2.028,-0.287 2.668,-0.861c0.641,-0.573 0.961,-1.358 0.961,-2.354c0,-1.041 -0.296,-1.846 -0.887,-2.415c-0.592,-0.569 -1.474,-0.863 -2.648,-0.88l-3.562,0l0,6.51Z" style="fill:#fff;fill-rule:nonzero;"/><path d="M65.81,33.035c0,1.903 -0.329,3.573 -0.987,5.01c-0.658,1.436 -1.599,2.539 -2.822,3.308c-1.223,0.769 -2.63,1.154 -4.222,1.154c-1.574,0 -2.977,-0.385 -4.209,-1.154c-1.232,-0.769 -2.184,-1.865 -2.855,-3.288c-0.672,-1.423 -1.012,-3.064 -1.021,-4.923l0,-1.094c0,-1.894 0.336,-3.566 1.008,-5.016c0.671,-1.45 1.618,-2.559 2.841,-3.329c1.223,-0.769 2.626,-1.154 4.209,-1.154c1.583,0 2.986,0.381 4.209,1.141c1.223,0.76 2.168,1.854 2.835,3.282c0.667,1.427 1.005,3.088 1.014,4.983l0,1.08Zm-3.375,-1.014c0,-2.152 -0.407,-3.802 -1.221,-4.949c-0.814,-1.147 -1.968,-1.721 -3.462,-1.721c-1.458,0 -2.599,0.571 -3.422,1.714c-0.822,1.143 -1.243,2.76 -1.26,4.85l0,1.12c0,2.135 0.415,3.785 1.247,4.95c0.831,1.165 1.985,1.747 3.462,1.747c1.494,0 2.644,-0.569 3.448,-1.707c0.805,-1.139 1.208,-2.802 1.208,-4.99l0,-1.014Z" style="fill:#fff;fill-rule:nonzero;"/><path d="M75.976,42.24l0,-19.424l5.736,0c1.717,0 3.24,0.383 4.569,1.147c1.33,0.765 2.359,1.85 3.089,3.256c0.729,1.405 1.094,3.015 1.094,4.829l0,0.974c0,1.841 -0.367,3.46 -1.101,4.856c-0.734,1.396 -1.779,2.472 -3.135,3.228c-1.356,0.756 -2.911,1.134 -4.663,1.134l-5.589,0Zm3.375,-16.702l0,14.007l2.201,0c1.77,0 3.128,-0.553 4.076,-1.66c0.947,-1.108 1.429,-2.697 1.447,-4.77l0,-1.08c0,-2.108 -0.458,-3.718 -1.374,-4.83c-0.916,-1.111 -2.246,-1.667 -3.989,-1.667l-2.361,0Z" style="fill:#fff;fill-rule:nonzero;"/><path d="M104.418,37.718l-7.524,0l-1.574,4.522l-3.509,0l7.338,-19.424l3.028,0l7.351,19.424l-3.522,0l-1.588,-4.522Zm-6.577,-2.722l5.63,0l-2.815,-8.058l-2.815,8.058Z" style="fill:#fff;fill-rule:nonzero;"/><path d="M124.162,25.538l-6.056,0l0,16.702l-3.349,0l0,-16.702l-6.003,0l0,-2.722l15.408,0l0,2.722Z" style="fill:#fff;fill-rule:nonzero;"/><path d="M135.982,37.718l-7.524,0l-1.574,4.522l-3.509,0l7.338,-19.424l3.028,0l7.351,19.424l-3.522,0l-1.588,-4.522Zm-6.577,-2.722l5.63,0l-2.815,-8.058l-2.815,8.058Z" style="fill:#fff;fill-rule:nonzero;"/><path d="M164.918,35.917c-0.195,2.072 -0.96,3.689 -2.294,4.849c-1.334,1.161 -3.109,1.741 -5.323,1.741c-1.548,0 -2.911,-0.367 -4.089,-1.1c-1.178,-0.734 -2.088,-1.777 -2.728,-3.129c-0.641,-1.352 -0.974,-2.922 -1.001,-4.709l0,-1.815c0,-1.832 0.325,-3.446 0.974,-4.842c0.649,-1.397 1.581,-2.473 2.795,-3.229c1.214,-0.756 2.617,-1.134 4.209,-1.134c2.143,0 3.869,0.581 5.176,1.741c1.308,1.161 2.068,2.804 2.281,4.93l-3.361,0c-0.161,-1.397 -0.567,-2.404 -1.221,-3.022c-0.654,-0.618 -1.612,-0.927 -2.875,-0.927c-1.468,0 -2.595,0.536 -3.382,1.609c-0.787,1.073 -1.189,2.646 -1.207,4.72l0,1.723c0,2.101 0.376,3.703 1.127,4.807c0.752,1.104 1.852,1.656 3.302,1.656c1.325,0 2.321,-0.298 2.988,-0.894c0.667,-0.596 1.09,-1.588 1.268,-2.975l3.361,0Z" style="fill:#fff;fill-rule:nonzero;"/><path d="M182.141,22.816l0,12.981c0,2.063 -0.66,3.697 -1.981,4.902c-1.32,1.206 -3.079,1.808 -5.276,1.808c-2.223,0 -3.989,-0.594 -5.296,-1.781c-1.308,-1.187 -1.961,-2.835 -1.961,-4.943l0,-12.967l3.361,0l0,12.994c0,1.299 0.33,2.29 0.988,2.975c0.658,0.685 1.627,1.027 2.908,1.027c2.597,0 3.895,-1.369 3.895,-4.109l0,-12.887l3.362,0Z" style="fill:#fff;fill-rule:nonzero;"/><path d="M185.743,42.24l0,-19.424l6.657,0c2.197,0 3.869,0.44 5.017,1.321c1.147,0.88 1.72,2.192 1.72,3.935c0,0.89 -0.24,1.69 -0.72,2.402c-0.48,0.711 -1.183,1.263 -2.108,1.654c1.05,0.285 1.861,0.82 2.435,1.608c0.574,0.787 0.86,1.732 0.86,2.834c0,1.824 -0.584,3.225 -1.754,4.203c-1.169,0.978 -2.844,1.467 -5.023,1.467l-7.084,0Zm3.376,-8.765l0,6.07l3.748,0c1.059,0 1.886,-0.262 2.482,-0.787c0.596,-0.524 0.894,-1.254 0.894,-2.188c0,-2.018 -1.032,-3.05 -3.096,-3.095l-4.028,0Zm0,-2.481l3.308,0c1.05,0 1.87,-0.238 2.461,-0.714c0.592,-0.475 0.888,-1.149 0.888,-2.021c0,-0.96 -0.274,-1.654 -0.821,-2.081c-0.547,-0.427 -1.398,-0.64 -2.555,-0.64l-3.281,0l0,5.456Z" style="fill:#fff;fill-rule:nonzero;"/><path d="M214.333,33.569l-7.978,0l0,5.976l9.325,0l0,2.695l-12.7,0l0,-19.424l12.607,0l0,2.722l-9.232,0l0,5.363l7.978,0l0,2.668Z" style="fill:#fff;fill-rule:nonzero;"/></svg>